<svg version="1" xmlns="http://www.w3.org/2000/svg" width="1676" height="1676" viewBox="0 0 1257.000000 1257.000000"><path d="M568.9 218.1c-32.1 22.1-61.8 42.5-65.9 45.3-4.1 2.9-22.6 15.6-41 28.3-18.4 12.6-38.4 26.4-44.5 30.6-6 4.2-15.5 10.6-20.9 14.4l-9.9 6.8H219.5l-.3 57.5-.2 57.5-5.3 3.6c-2.8 1.9-21.8 15.2-42.2 29.4-20.3 14.3-43.3 30.3-51 35.6-7.7 5.4-15.3 10.7-17 11.9-4.7 3.4-49.7 34.9-52.5 36.8-12.1 8.1-38.2 26.7-38.7 27.6-.9 1.4-1.1 636.8-.2 638.1.5.7 206.1 1 614.1.9 337.3-.1 614-.2 614.8-.3 1.3-.1 1.5-36.3 1.5-319.3V603.5l-9.2-6.5c-5.1-3.6-12.1-8.4-15.5-10.8-28.1-19.3-73.7-50.7-86.8-59.7-8.8-6.1-23.2-16-32-22-8.7-6.1-22.5-15.5-30.6-21-8.1-5.5-15.2-10.6-16-11.3-.7-.6-1.5-1.2-1.7-1.2-.3 0-3.8-2.3-7.9-5l-7.3-5.1-.5-58.7-.5-58.7H952c-59.4-.1-83.1-.4-84.5-1.2-1.1-.6-11.7-7.8-23.5-16-11.8-8.1-25.3-17.4-30-20.6-4.7-3.2-12.5-8.6-17.5-12.1-4.9-3.4-14.8-10.2-22-15.1-7.1-4.9-18.4-12.6-25-17.2-21.6-14.9-57.9-39.7-69.5-47.7-4.1-2.8-7.7-5.3-8-5.6-.3-.3-3.2-2.3-6.5-4.6-10.2-6.9-28.8-19.7-32.9-22.6-2.1-1.5-4.2-2.8-4.6-2.8-.4 0-27 18.1-59.1 40.1zm63.9 31.2c2.6 1.8 10.6 7.3 17.7 12.2 7.2 4.9 18.6 12.8 25.5 17.5 6.9 4.8 17 11.7 22.5 15.5 5.5 3.8 12.7 8.7 16 11 10.5 7.2 40.7 28 47.8 32.8 3.8 2.6 6.7 4.8 6.5 4.8-1 .4-281.8.3-281.8-.1 0-.3 1.2-1.3 2.8-2.2 1.5-.9 4.7-3.1 7.2-4.9 4.4-3.1 14.4-10 32.5-22.4 10-6.9 13.9-9.5 63.5-43.7 19-13.1 34.6-23.8 34.8-23.8.1 0 2.4 1.5 5 3.3zm346.8 307.8l-.1 158-5 2.8c-2.7 1.5-11.3 6-19 10-18.5 9.7-29.7 15.6-37 19.6-3.3 1.8-12.1 6.4-19.5 10.3-7.4 3.9-15.5 8.1-18 9.4-2.5 1.4-11.7 6.2-20.5 10.8-8.8 4.5-17.3 9-19 10-1.6.9-8.8 4.8-16 8.5-16.9 8.8-30.8 16.1-37 19.5-2.7 1.5-11.3 6-19 10-7.7 4-16.2 8.5-19 10-2.7 1.5-10.8 5.8-18 9.5-7.1 3.7-15.2 8-18 9.5-2.7 1.5-10.4 5.5-17 9-13 6.8-27 14.1-38 20-3.8 2-12.7 6.7-19.7 10.4l-12.8 6.7-13.7-7.2c-7.6-3.9-17.4-9.1-21.8-11.4-7.6-4-16.5-8.7-42.5-22.2-25-13.1-33.8-17.7-41.5-21.8-4.4-2.3-13.2-6.9-19.5-10.2-6.3-3.3-16.9-8.9-23.5-12.3-6.6-3.5-16.2-8.5-21.2-11.1-21-11-28.5-15-41.8-21.9-7.7-4-17.1-9-21-11-3.8-2.1-13.3-7-21-11-15.4-8-28.8-15-41-21.5-8-4.2-28.2-14.8-38.2-20-2.9-1.5-5.4-3.2-5.4-3.9-.1-.6-.2-72.1-.3-158.9l-.2-157.7h705.2v158.1zM219 606.5c0 84.3.2 81.3-4.5 78.2-1.9-1.3-11.8-6.6-30.5-16.5-4.7-2.4-10.7-5.7-13.5-7.2-15-8.1-28.7-15.2-28.9-14.9-.2.2-5.7 10.7-12.1 23.4-6.5 12.6-12.3 23.6-12.8 24.3-.5.7-.8 1.4-.6 1.6.2.1 6.3 3.3 13.4 7.1 7.2 3.7 16.2 8.5 20 10.5 3.9 2.1 12.4 6.6 19 10 6.6 3.4 15.2 7.9 19 10 9.6 5.1 23.6 12.5 39 20.5 7.2 3.7 15.7 8.2 19 10 3.3 1.8 11 5.8 17 9 6.1 3.2 14.2 7.5 18 9.5 3.9 2.1 13.3 7 21 11 12.4 6.4 23.9 12.5 57 30 5 2.6 14.9 7.8 22 11.5 7.2 3.7 15.3 8 18 9.5 2.8 1.5 9.7 5.2 15.5 8.2 5.8 3.1 14.8 7.8 20 10.5 5.2 2.8 14.9 7.8 21.5 11.3 6.6 3.4 15.2 7.9 19 10 13.8 7.4 24.2 12.9 40 21 8.8 4.5 17.4 9.1 19 10 1.7 1 8.4 4.6 15 8 14.1 7.3 29.8 15.6 41 21.5 4.4 2.3 13 6.8 19 10 6.1 3.2 12.6 6.6 14.5 7.7 4.1 2.1 5.9 2.3 8.5.5 1.8-1.3 7.2-4.1 38.5-20.5 5.8-3 12.8-6.7 15.5-8.2 2.8-1.5 10-5.3 16-8.5 6.1-3.2 14.2-7.4 18-9.5 3.9-2 12.9-6.8 20-10.5 7.2-3.7 15.3-8 18-9.5 2.8-1.5 10.4-5.5 17-9 6.6-3.4 15.2-7.9 19-10 3.9-2 12-6.3 18-9.5 6.1-3.2 14.6-7.7 19-10 4.4-2.4 12.7-6.7 18.5-9.8 5.8-3 13-6.8 16-8.4 7.1-3.9 28.5-15.1 55.5-29.3 6.6-3.5 15.2-8 19-10 3.9-2.1 11.5-6.1 17-9 5.5-2.9 12.7-6.7 16-8.5 3.3-1.8 11.9-6.3 19-10 7.2-3.7 15.7-8.2 19-10 3.3-1.8 11.4-6.1 18-9.5 6.6-3.4 15.2-8 19-10 3.9-2.1 11.5-6.1 17-9 5.5-2.9 13.6-7.1 18-9.5 4.4-2.3 12.5-6.6 18-9.5 5.5-2.9 12.3-6.5 15-8 2.8-1.5 8.7-4.6 13.3-6.9 4.5-2.4 8.2-4.6 8.2-5 0-1.2-25.1-46.4-26.6-48-.9-1-1.7-1.1-2.6-.4-1.2.9-7.7 4.4-33.3 17.8-6 3.2-13.2 7-16 8.5-12.1 6.7-22.8 12.1-23.1 11.7-.2-.2-.3-35.3-.2-78.1l.3-77.7 10.5 7.2c5.8 3.9 20.2 13.8 32 21.9 11.8 8.1 25.8 17.6 31 21.1 5.2 3.5 9.7 6.6 10 6.9.3.4 6.4 4.6 13.5 9.4 7.2 4.8 20.9 14.1 30.5 20.8 9.6 6.6 19 12.9 20.8 14l3.2 2V1187H67V632.4l8-5.4c13.6-9.3 134.3-93.7 138.5-96.9 2.2-1.6 4.3-3 4.8-3 .4-.1.7 35.7.7 79.4z"/><path d="M695.7 587.5C625 658.2 567 716 566.6 716c-.3 0-18.3-17.7-40-39.4l-39.3-39.4-29.9 29.9-29.8 29.8 69.1 69c38 38 69.5 69.1 70 69.1.4 0 72.1-71.3 159.2-158.4l158.4-158.5-29.5-29.5C838.5 472.3 825 459 824.7 459c-.3 0-58.3 57.8-129 128.5z"/></svg>